<?xml version="1.0" standalone="no"?>
<!DOCTYPE svg PUBLIC "-//W3C//DTD SVG 1.1//EN" "http://www.w3.org/Graphics/SVG/1.1/DTD/svg11.dtd" >
<svg xmlns="http://www.w3.org/2000/svg">
<metadata>
This is a custom SVG webfont generated by Font Squirrel.
Copyright   : Created by gluk with FontForge 10 httpfontforgesfnetThis Font Software is licensed under the SIL Open Font License V11This license is available with a FAQ at httpscriptssilorgOFL
</metadata>
<defs>
<font id="GputeksBold" horiz-adv-x="1365" >
<font-face units-per-em="2048" ascent="1621" descent="-427" />
<missing-glyph horiz-adv-x="1066" />
<glyph unicode=" "  horiz-adv-x="1066" />
<glyph unicode="&#x09;" horiz-adv-x="1066" />
<glyph unicode="&#xa0;" horiz-adv-x="1066" />
<glyph unicode="!" horiz-adv-x="512" d="M85 43v85q1 15 3 21.5t16.5 14t44.5 7.5h128q31 0 45 -6t16 -13t3 -24v-85q0 -25 -10 -34t-54 -9h-128q-42 0 -53 9t-11 34zM85 341v1280h256v-1280h-256z" />
<glyph unicode="&#x22;" horiz-adv-x="597" d="M85 1664v85q0 11 1 16.5t6.5 13t19.5 10.5t37 3h43q31 0 45 -5.5t16.5 -13t2.5 -24.5v-128q0 -16 -21 -213h-86l22 192q0 21 -32 21h-9q-12 0 -28.5 12.5t-16.5 30.5zM341 1664v85q0 11 1 16.5t6.5 13t19.5 10.5t37 3h43q31 0 45 -5.5t16.5 -13t2.5 -24.5v-128 q0 -26 -21 -213h-86l22 192q0 21 -32 21h-9q-12 0 -28.5 12.5t-16.5 30.5z" />
<glyph unicode="#" horiz-adv-x="1066" d="M85 427v85h171v256h-171v85h171v171h85v-171h171v171h85v-171h171v-85h-171v-256h171v-85h-171v-171h-85v171h-171v-171h-85v171h-171zM341 512h171v256h-171v-256z" />
<glyph unicode="$" d="M85 1033v110q0 143 117.5 225.5t309.5 82.5h21v213h86v-213h405v-86h-405v-554h149q192 0 309.5 -82.5t117.5 -225.5v-110q0 -143 -117.5 -225.5t-309.5 -82.5h-149v-213h-86v213h-362v86h362v554h-21q-192 0 -309.5 82.5t-117.5 225.5zM341 1079q0 -24 1 -42t5 -45 t11.5 -47t21.5 -43t34 -39t50.5 -29t68.5 -19v546q-38 -6 -68.5 -19t-50.5 -29t-34 -39t-21.5 -43t-11.5 -47t-5 -45t-1 -42v-18zM619 171h64q51 0 92 10t67 25t45 39.5t29 46t15.5 51.5t6.5 49.5t1 46.5v18q0 27 -1 46.5t-6.5 49.5t-15.5 51.5t-29 46t-45 39.5t-67 25 t-92 10h-64v-554z" />
<glyph unicode="%" horiz-adv-x="1280" d="M85 0l811 1621h213l-810 -1621h-214zM85 1421v53q0 69 45.5 108t123.5 39h51q81 0 130 -39.5t49 -107.5v-53q0 -67 -52 -107t-127 -40h-51q-78 0 -123.5 39t-45.5 108zM169 1444q0 -130 100 -130h21q34 0 56 12.5t30.5 35.5t11 40t2.5 42v9q0 24 -2.5 41t-11 39.5 t-30.5 35t-56 12.5h-21q-28 0 -48 -9.5t-30 -21.5t-15 -32t-6 -33t-1 -32v-9zM710 147v54q0 68 46 107.5t123 39.5h51q81 0 130 -39.5t49 -107.5v-54q0 -67 -52 -107t-127 -40h-51q-77 0 -123 39.5t-46 107.5zM794 171q0 -130 100 -130h21q34 0 56 12.5t30.5 35.5t11 40 t2.5 42v8q0 24 -2.5 41t-11 39.5t-30.5 35t-56 12.5h-21q-28 0 -48 -9.5t-30 -21.5t-15 -32t-6 -33t-1 -32v-8z" />
<glyph unicode="&#x26;" horiz-adv-x="1621" d="M85 307v239q0 132 104 214.5t262 91.5q-4 3 -42.5 27.5t-82.5 58t-90.5 78.5t-77 106t-30.5 124v68q0 142 118.5 224.5t314.5 82.5h207q192 0 309.5 -82.5t117.5 -224.5v-79h-256v32q0 27 -1 47t-6.5 50t-15.5 51.5t-29 45.5t-45 39.5t-67 25.5t-92 10h-37 q-72 0 -124 -19.5t-78 -45.5t-40.5 -67.5t-17 -69.5t-2.5 -67v-60q0 -34 2.5 -62.5t9.5 -53.5t13 -43.5t20 -40t24 -35t31 -34.5t34.5 -33t41.5 -37.5t45 -41.5l586 -546q4 35 4 74v201h256v-248q0 -73 -65 -170l137 -127l-59 -62l-136 126q-53 -44 -123 -59t-181 -15h-506 q-195 0 -314 82.5t-119 224.5zM341 354q0 -39 3 -67.5t17.5 -69.5t40.5 -67t78 -45.5t124 -19.5h335q168 0 225 104l-658 612q-38 -9 -67 -25.5t-46 -39.5t-28.5 -45.5t-16 -52t-6 -49.5t-1.5 -47v-188z" />
<glyph unicode="'" horiz-adv-x="341" d="M85 1664v85q0 11 1 16.5t6.5 13t19.5 10.5t37 3h43q31 0 45 -5.5t16.5 -13t2.5 -24.5v-128q0 -16 -21 -213h-86l22 192q0 21 -32 21h-9q-12 0 -28.5 12.5t-16.5 30.5z" />
<glyph unicode="(" horiz-adv-x="853" d="M85 51v1263q0 142 117.5 224.5t309.5 82.5h171v-85h-86q-51 0 -92 -10t-67 -25.5t-45 -39.5t-29 -45.5t-15.5 -51.5t-6.5 -50t-1 -47v-1169q0 -27 1 -47t6.5 -50t15.5 -51.5t29 -45.5t45 -39.5t67 -25.5t92 -10h86v-85h-171q-192 0 -309.5 82.5t-117.5 224.5z" />
<glyph unicode=")" horiz-adv-x="853" d="M85 -171h86q51 0 92 10t67 25.5t45 39.5t29 45.5t15.5 51.5t6.5 50t1 47v1169q0 27 -1 47t-6.5 50t-15.5 51.5t-29 45.5t-45 39.5t-67 25.5t-92 10h-86v85h171q192 0 309.5 -82.5t117.5 -224.5v-1263q0 -142 -117.5 -224.5t-309.5 -82.5h-171v85z" />
<glyph unicode="*" horiz-adv-x="900" d="M171 585l113 113l-113 113l59 59l113 -113l114 113l59 -59l-113 -113l113 -113l-59 -60l-114 113l-113 -113z" />
<glyph unicode="+" d="M85 853v86h470v512h170v-512h470v-86h-470v-512h-170v512h-470z" />
<glyph unicode="," horiz-adv-x="667" d="M147 -132l106 80q18 16 18 30q0 22 -36 22q-43 0 -53.5 8.5t-10.5 34.5v85q1 15 3 21.5t16.5 14t44.5 7.5h128q31 0 45 -6t16.5 -13t2.5 -24v-128q-1 -34 -28 -55l-205 -150z" />
<glyph unicode="-" d="M85 853v86h1110v-86h-1110z" />
<glyph unicode="." horiz-adv-x="682" d="M171 43v85q1 15 3 21.5t16.5 14t44.5 7.5h128q31 0 45 -6t16 -13t3 -24v-85q0 -25 -10 -34t-54 -9h-128q-43 0 -53.5 8.5t-10.5 34.5z" />
<glyph unicode="/" horiz-adv-x="1280" d="M85 0l811 1621h213l-810 -1621h-214z" />
<glyph unicode="0" d="M85 307v1007q0 142 117.5 224.5t309.5 82.5h256q192 0 309.5 -82.5t117.5 -224.5v-1007q0 -142 -117.5 -224.5t-309.5 -82.5h-256q-192 0 -309.5 82.5t-117.5 224.5zM341 354q0 -27 1 -47t6.5 -50t15.5 -51.5t29 -45.5t45 -39.5t67 -25.5t92 -10h86q51 0 92 10t67 25.5 t45 39.5t29 45.5t15.5 51.5t6.5 50t1 47v913q0 27 -1 47t-6.5 50t-15.5 51.5t-29 45.5t-45 39.5t-67 25.5t-92 10h-86q-51 0 -92 -10t-67 -25.5t-45 -39.5t-29 -45.5t-15.5 -51.5t-6.5 -50t-1 -47v-913z" />
<glyph unicode="1" horiz-adv-x="597" d="M0 1536v85h427v-1621h-256v1438q0 98 -86 98h-85z" />
<glyph unicode="2" d="M85 0v674q0 142 117.5 224.5t309.5 82.5h171q51 0 92 10t67 25.5t45 39.5t29 45.5t15.5 51.5t6.5 50t1 47v17q0 27 -1 47t-6.5 50t-15.5 51.5t-29 45.5t-45 39.5t-67 25.5t-92 10h-470v85h555q192 0 309.5 -82.5t117.5 -224.5v-111q0 -142 -117.5 -224.5t-309.5 -82.5 h-171q-51 0 -92 -10t-67 -25.5t-45 -39.5t-29 -45.5t-15.5 -51.5t-6.5 -50t-1 -47v-542h854v-85h-1110z" />
<glyph unicode="3" d="M85 0v85h598q51 0 92 10t67 25.5t45 39.5t29 45.5t15.5 51.5t6.5 50t1 47v188q0 27 -1 47t-6.5 50t-15.5 51.5t-29 45.5t-45 39.5t-67 25.5t-92 10h-342v85h299q51 0 92 12.5t67 31t45 47.5t29 55t15.5 60t6.5 55.5t1 49.5v60q0 27 -1 47t-6.5 50t-15.5 51.5t-29 45.5 t-45 39.5t-67 25.5t-92 10h-555v85h640q192 0 309.5 -82.5t117.5 -224.5v-153q0 -76 -26 -132.5t-65.5 -86t-86 -49t-86.5 -24.5t-68.5 -9t-30.5 -7q179 0 292.5 -83t113.5 -224v-239q0 -142 -117.5 -224.5t-309.5 -82.5h-683z" />
<glyph unicode="4" d="M85 734v887h256v-840q0 -27 1 -47t6.5 -50t15.5 -51.5t29 -45.5t45 -39.5t67 -25.5t92 -10h342v1109h256v-1621h-256v427h-427q-192 0 -309.5 82.5t-117.5 224.5z" />
<glyph unicode="5" d="M85 0v85h598q51 0 92 10t67 25.5t45 39.5t29 45.5t15.5 51.5t6.5 50t1 47v401q0 27 -1 47t-6.5 50t-15.5 51.5t-29 45.5t-45 39.5t-67 25.5t-92 10h-598v597h1024v-85h-768v-427h427q192 0 309.5 -82.5t117.5 -224.5v-495q0 -142 -117.5 -224.5t-309.5 -82.5h-683z" />
<glyph unicode="6" d="M85 307v1007q0 142 117.5 224.5t309.5 82.5h597v-85h-512q-51 0 -92 -10t-67 -25.5t-45 -39.5t-29 -45.5t-15.5 -51.5t-6.5 -50t-1 -47v-158h427q192 0 309.5 -82.5t117.5 -224.5v-495q0 -142 -117.5 -224.5t-309.5 -82.5h-256q-192 0 -309.5 82.5t-117.5 224.5zM341 354 q0 -27 1 -47t6.5 -50t15.5 -51.5t29 -45.5t45 -39.5t67 -25.5t92 -10h86q51 0 92 10t67 25.5t45 39.5t29 45.5t15.5 51.5t6.5 50t1 47v401q0 27 -1 47t-6.5 50t-15.5 51.5t-29 45.5t-45 39.5t-67 25.5t-92 10h-86q-51 0 -92 -10t-67 -25.5t-45 -39.5t-29 -45.5t-15.5 -51.5 t-6.5 -50t-1 -47v-401z" />
<glyph unicode="7" d="M85 1536v85h1110l-64 -68q-52 -55 -106.5 -78.5t-85.5 -23.5q-51 0 -92 -20t-67 -49.5t-45.5 -73t-29 -81.5t-15 -85.5t-6.5 -74t-1 -56.5v-1011h-256v1058q0 58 20 123.5t58.5 128t89 113.5t118.5 82t140 31h-768z" />
<glyph unicode="8" d="M85 307v367q0 91 50 159t140 106q-83 35 -115 99t-32 165v111q0 142 117.5 224.5t309.5 82.5h170q192 0 309.5 -82.5t117.5 -224.5v-111q0 -101 -32 -165t-115 -99q90 -38 140 -106t50 -159v-367q0 -142 -117.5 -224.5t-309.5 -82.5h-256q-192 0 -309.5 82.5 t-117.5 224.5zM341 354q0 -27 1 -47t6.5 -50t15.5 -51.5t29 -45.5t45 -39.5t67 -25.5t92 -10h86q51 0 92 10t67 25.5t45 39.5t29 45.5t15.5 51.5t6.5 50t1 47v273q0 27 -1 47t-6.5 50t-15.5 51.5t-29 45.5t-45 39.5t-67 25.5t-92 10h-86q-51 0 -92 -10t-67 -25.5t-45 -39.5 t-29 -45.5t-15.5 -51.5t-6.5 -50t-1 -47v-273zM341 1250q0 -27 1 -47t6.5 -50t15.5 -51.5t29 -45.5t45 -39.5t67 -25.5t92 -10h86q51 0 92 10t67 25.5t45 39.5t29 45.5t15.5 51.5t6.5 50t1 47v17q0 27 -1 47t-6.5 50t-15.5 51.5t-29 45.5t-45 39.5t-67 25.5t-92 10h-86 q-51 0 -92 -10t-67 -25.5t-45 -39.5t-29 -45.5t-15.5 -51.5t-6.5 -50t-1 -47v-17z" />
<glyph unicode="9" d="M85 734v397v183q0 142 117.5 224.5t309.5 82.5h256q192 0 309.5 -82.5t117.5 -224.5v-1007q0 -142 -117.5 -224.5t-309.5 -82.5h-597v85h512q51 0 92 10t67 25.5t45 39.5t29 45.5t15.5 51.5t6.5 50t1 47v73h-427q-192 0 -309.5 82.5t-117.5 224.5zM341 781q0 -27 1 -47 t6.5 -50t15.5 -51.5t29 -45.5t45 -39.5t67 -25.5t92 -10h86q51 0 92 10t67 25.5t45 39.5t29 45.5t15.5 51.5t6.5 50t1 47v486q0 27 -1 47t-6.5 50t-15.5 51.5t-29 45.5t-45 39.5t-67 25.5t-92 10h-86q-51 0 -92 -10t-67 -25.5t-45 -39.5t-29 -45.5t-15.5 -51.5t-6.5 -50 t-1 -47v-136v-350z" />
<glyph unicode=":" horiz-adv-x="512" d="M86 45v85q1 15 3 21.5t16.5 14t44.5 7.5h128q31 0 45 -6t16 -13t3 -24v-85q0 -25 -10 -34t-54 -9h-128q-43 0 -53.5 8.5t-10.5 34.5zM86 1067v85q1 15 3 21.5t16.5 14t44.5 7.5h128q31 0 45 -6t16 -13t3 -24v-85q0 -25 -10 -34t-54 -9h-128q-43 0 -53.5 8.5t-10.5 34.5z " />
<glyph unicode=";" horiz-adv-x="667" d="M156 1067v85q1 15 3 21.5t16.5 14t44.5 7.5h128q31 0 45 -6t16 -13t3 -24v-85q0 -25 -10 -34t-54 -9h-128q-43 0 -53.5 8.5t-10.5 34.5zM132 -132l106 80q18 16 18 30q0 22 -36 22q-43 0 -53.5 8.5t-10.5 34.5v85q1 15 3 21.5t16.5 14t44.5 7.5h128q31 0 45 -6t16.5 -13 t2.5 -24v-128q-1 -34 -28 -55l-205 -150z" />
<glyph unicode="&#x3c;" horiz-adv-x="896" d="M85 817l573 573l61 -60l-332 -332q-96 -96 -96 -185q0 -36 17 -72t34.5 -57t44.5 -48l332 -332l-61 -61z" />
<glyph unicode="=" d="M85 597v86h1110v-86h-1110zM85 939v85h1110v-85h-1110z" />
<glyph unicode="&#x3e;" horiz-adv-x="896" d="M86 304l332 332q27 27 44.5 48t34.5 57t17 72q0 88 -96 185l-332 332l60 60l573 -573l-573 -574z" />
<glyph unicode="?" horiz-adv-x="1194" d="M85 1536v85h512q192 0 309.5 -82.5t117.5 -224.5v-409q0 -143 -117.5 -225.5t-309.5 -82.5h-85v-256h-256v342h256q51 0 92 10t67 25t45 39.5t29 46t15.5 51.5t6.5 49.5t1 46.5v316q0 27 -1 47t-6.5 50t-15.5 51.5t-29 45.5t-45 39.5t-67 25.5t-92 10h-427zM256 43v85 q1 15 3 21.5t16.5 14t44.5 7.5h128q31 0 45 -6t16 -13t3 -24v-85q0 -25 -10 -34t-54 -9h-128q-43 0 -53.5 8.5t-10.5 34.5z" />
<glyph unicode="@" horiz-adv-x="2133" d="M85 -34v1263q0 94 75 185.5t194.5 149t242.5 57.5h854q123 0 242.5 -57.5t194.5 -149t75 -185.5v-1007q0 -139 -176 -191q-37 -11 -144 -31h-192h-534q-191 0 -308.5 82.5t-117.5 224.5v580q0 143 117.5 225.5t308.5 82.5h171q192 0 309.5 -82.5t117.5 -225.5v-797h81 q96 8 146 49.5t50 129.5v913q0 32 -11.5 75t-38 92.5t-64.5 90.5t-97.5 68.5t-129.5 27.5h-854q-70 0 -129.5 -27.5t-97.5 -68.5t-64.5 -90.5t-38 -92.5t-11.5 -75v-1169q0 -32 11.5 -75t38 -92.5t64.5 -90.5t97.5 -68.5t129.5 -27.5h753v-86h-753q-123 0 -242.5 57.5 t-194.5 149.5t-75 186zM747 354q0 -40 2.5 -67.5t16.5 -69t39.5 -67.5t76 -45.5t121.5 -19.5h256v756q0 27 -1 46.5t-6.5 49.5t-15.5 51.5t-29 46t-45 39.5t-67 25t-92 10t-92 -10t-67.5 -25t-45.5 -39.5t-28.5 -45.5t-15 -51.5t-6.5 -50t-1 -46.5v-487z" />
<glyph unicode="A" horiz-adv-x="1450" d="M85 0v1314q0 142 117.5 224.5t309.5 82.5h341q192 0 309.5 -82.5t117.5 -224.5v-1314h-256v939h-683v-939h-256zM341 1024h683v243q0 27 -1 47t-6.5 50t-15.5 51.5t-29 45.5t-45 39.5t-67 25.5t-92 10h-171q-51 0 -92 -10t-67 -25.5t-45 -39.5t-29 -45.5t-15.5 -51.5 t-6.5 -50t-1 -47v-243z" />
<glyph unicode="B" horiz-adv-x="1450" d="M85 0v853v768h726q191 0 308.5 -82.5t117.5 -224.5v-25q0 -76 -26 -132.5t-65.5 -86t-86 -49t-86 -24.5t-68 -9t-30.5 -7q178 0 291.5 -83t113.5 -224v-367q0 -142 -117.5 -224.5t-309.5 -82.5h-768zM341 85h427q51 0 92 10t67 25.5t45 39.5t29 45.5t15.5 51.5t6.5 50 t1 47v316q0 27 -1 47t-6.5 50t-15.5 51.5t-29 45.5t-45 39.5t-67 25.5t-92 10h-427v-854zM341 1024h384q51 0 92 10.5t67.5 26.5t45.5 41t28.5 47.5t15 53.5t6.5 51t1 47q0 38 -10 74t-35.5 75t-79.5 62.5t-131 23.5h-213q-28 0 -42.5 -0.5t-38.5 -2.5t-37 -7.5t-27 -14.5 t-20 -24t-6 -36v-427z" />
<glyph unicode="C" d="M85 307v1007q0 142 117.5 224.5t309.5 82.5h683v-85h-598q-51 0 -92 -10t-67 -25.5t-45 -39.5t-29 -45.5t-15.5 -51.5t-6.5 -50t-1 -47v-913q0 -27 1 -47t6.5 -50t15.5 -51.5t29 -45.5t45 -39.5t67 -25.5t92 -10h598v-85h-683q-192 0 -309.5 82.5t-117.5 224.5z" />
<glyph unicode="D" horiz-adv-x="1450" d="M85 0v1621h768q192 0 309.5 -82.5t117.5 -224.5v-1007q0 -142 -117.5 -224.5t-309.5 -82.5h-768zM341 85h427q51 0 92 10t67 25.5t45 39.5t29 45.5t15.5 51.5t6.5 50t1 47v913q0 27 -1 47t-6.5 50t-15.5 51.5t-29 45.5t-45 39.5t-67 25.5t-92 10h-256q-29 0 -43.5 -0.5 t-38.5 -2.5t-36.5 -7.5t-26.5 -14.5t-20 -24t-6 -36v-1366z" />
<glyph unicode="E" d="M85 0v1621h1110v-85h-683q-29 0 -43.5 -0.5t-38.5 -2.5t-36.5 -7.5t-26.5 -14.5t-20 -24t-6 -36v-427h598v-85h-598v-854h854v-85h-1110z" />
<glyph unicode="F" d="M85 0v1621h1110v-85h-683q-29 0 -43.5 -0.5t-38.5 -2.5t-36.5 -7.5t-26.5 -14.5t-20 -24t-6 -36v-427h598v-85h-598v-939h-256z" />
<glyph unicode="G" horiz-adv-x="1450" d="M85 307v1007q0 142 117.5 224.5t309.5 82.5h725v-85h-640q-51 0 -92 -10t-67 -25.5t-45 -39.5t-29 -45.5t-15.5 -51.5t-6.5 -50t-1 -47v-913q0 -27 1 -47t6.5 -50t15.5 -51.5t29 -45.5t45 -39.5t67 -25.5t92 -10h427v854h-326v85h582v-1024h-768q-192 0 -309.5 82.5 t-117.5 224.5z" />
<glyph unicode="H" horiz-adv-x="1450" d="M85 0v1621h256v-597h683v597h256v-1621h-256v939h-683v-939h-256z" />
<glyph unicode="I" horiz-adv-x="512" d="M85 0v1621h256v-1621h-256z" />
<glyph unicode="J" horiz-adv-x="1024" d="M85 0v85h256q71 0 121.5 19.5t76 45.5t39.5 67.5t16.5 69t2.5 67.5v1267h256v-1314q0 -142 -117.5 -224.5t-308.5 -82.5h-342z" />
<glyph unicode="K" horiz-adv-x="1450" d="M85 0v1621h256v-689q0 -65 35 -65q21 0 43 25l661 729h115l-529 -584q-48 -54 -48 -127q0 -50 29 -89l633 -821h-322l-492 636q-40 51 -82 51q-13 0 -43 -28v-659h-256z" />
<glyph unicode="L" d="M85 0v1621h256v-1536h854v-85h-1110z" />
<glyph unicode="M" horiz-adv-x="2048" d="M85 0v1621h1366q191 0 308.5 -82.5t117.5 -224.5v-1314h-256v1267q0 40 -2.5 67.5t-16.5 69t-39.5 67.5t-76 45.5t-121.5 19.5h-30q-226 0 -226 -269v-1267h-256v1267q0 27 -1 47.5t-7 50t-15.5 51.5t-29 46t-45.5 39t-66.5 25t-91.5 10h-30q-224 0 -226 -269v-1267h-256 z" />
<glyph unicode="N" horiz-adv-x="1450" d="M85 0v1621h768q192 0 309.5 -82.5t117.5 -224.5v-1314h-256v1267q0 27 -1 47t-6.5 50t-15.5 51.5t-29 45.5t-45 39.5t-67 25.5t-92 10h-256q-29 0 -43.5 -0.5t-38.5 -2.5t-36.5 -7.5t-26.5 -14.5t-20 -24t-6 -36v-1451h-256z" />
<glyph unicode="O" horiz-adv-x="1450" d="M85 307v1007q0 142 117.5 224.5t309.5 82.5h341q192 0 309.5 -82.5t117.5 -224.5v-1007q0 -142 -117.5 -224.5t-309.5 -82.5h-341q-192 0 -309.5 82.5t-117.5 224.5zM341 354q0 -27 1 -47t6.5 -50t15.5 -51.5t29 -45.5t45 -39.5t67 -25.5t92 -10h171q51 0 92 10t67 25.5 t45 39.5t29 45.5t15.5 51.5t6.5 50t1 47v913q0 27 -1 47t-6.5 50t-15.5 51.5t-29 45.5t-45 39.5t-67 25.5t-92 10h-171q-51 0 -92 -10t-67 -25.5t-45 -39.5t-29 -45.5t-15.5 -51.5t-6.5 -50t-1 -47v-913z" />
<glyph unicode="P" horiz-adv-x="1450" d="M85 0v1621h768q192 0 309.5 -82.5t117.5 -224.5v-495q0 -142 -117.5 -224.5t-309.5 -82.5h-512v-512h-256zM341 597h427q51 0 92 10t67 25.5t45 39.5t29 45.5t15.5 51.5t6.5 50t1 47v401q0 27 -1 47t-6.5 50t-15.5 51.5t-29 45.5t-45 39.5t-67 25.5t-92 10h-256 q-29 0 -43.5 -0.5t-38.5 -2.5t-36.5 -7.5t-26.5 -14.5t-20 -24t-6 -36v-854z" />
<glyph unicode="Q" horiz-adv-x="1450" d="M85 307v1007q0 142 117.5 224.5t309.5 82.5h341q192 0 309.5 -82.5t117.5 -224.5v-1007q0 -142 -117.5 -224.5t-309.5 -82.5h-72q10 -34 26 -64t43.5 -61t72 -49t101.5 -18h171v-85h-256q-181 0 -297 74t-129 203q-197 0 -312.5 84t-115.5 223zM341 354q0 -27 1 -47 t6.5 -50t15.5 -51.5t29 -45.5t45 -39.5t67 -25.5t92 -10h171q51 0 92 10t67 25.5t45 39.5t29 45.5t15.5 51.5t6.5 50t1 47v913q0 27 -1 47t-6.5 50t-15.5 51.5t-29 45.5t-45 39.5t-67 25.5t-92 10h-171q-51 0 -92 -10t-67 -25.5t-45 -39.5t-29 -45.5t-15.5 -51.5t-6.5 -50 t-1 -47v-913z" />
<glyph unicode="R" horiz-adv-x="1450" d="M85 0v1621h726q191 0 308.5 -82.5t117.5 -224.5v-25q0 -76 -26 -132.5t-65.5 -86t-86 -49t-86 -24.5t-68 -9t-30.5 -7q178 0 291.5 -83t113.5 -224v-674h-256v670q0 27 -1 47t-6.5 50t-15.5 51.5t-29 45.5t-45 39.5t-67 25.5t-92 10h-427v-939h-256zM341 1024h384 q51 0 92 10.5t67.5 26.5t45.5 41t28.5 47.5t15 53.5t6.5 51t1 47q0 30 -3 54t-17.5 60t-40 60.5t-76 42.5t-119.5 18h-213q-29 0 -43.5 -0.5t-38.5 -2.5t-36.5 -7.5t-26.5 -14.5t-20 -24t-6 -36v-427z" />
<glyph unicode="S" horiz-adv-x="1450" d="M85 1203v111q0 142 117.5 224.5t309.5 82.5h683v-85h-598q-51 0 -92 -10t-67 -25.5t-45 -39.5t-29 -45.5t-15.5 -51.5t-6.5 -50t-1 -47v-17q0 -27 1 -47t6.5 -50t15.5 -51.5t29 -45.5t45 -39.5t67 -25.5t92 -10h256q192 0 309.5 -82.5t117.5 -224.5v-367 q0 -142 -117.5 -224.5t-309.5 -82.5h-682v85h597q51 0 92 10t67 25.5t45 39.5t29 45.5t15.5 51.5t6.5 50t1 47v273q0 27 -1 47t-6.5 50t-15.5 51.5t-29 45.5t-45 39.5t-67 25.5t-92 10h-256q-192 0 -309.5 82.5t-117.5 224.5z" />
<glyph unicode="T" d="M85 1536v85h1110v-85h-427v-1536h-256v1536h-427z" />
<glyph unicode="U" horiz-adv-x="1450" d="M85 307v1314h256v-1267q0 -27 1 -47t6.5 -50t15.5 -51.5t29 -45.5t45 -39.5t67 -25.5t92 -10h256q29 0 43.5 0.5t38.5 2.5t36.5 7.5t26.5 15t20 24.5t6 36v1450h256v-1621h-768q-192 0 -309.5 82.5t-117.5 224.5z" />
<glyph unicode="V" horiz-adv-x="1450" d="M80 1621h267l381 -1318q15 -52 43 -52q27 0 43 54l379 1316h88l-466 -1621h-266z" />
<glyph unicode="W" horiz-adv-x="2048" d="M85 307v1314h256v-1267q0 -27 1 -47t6.5 -50t15.5 -51.5t29 -45.5t45 -39.5t67 -25.5t92 -10h86q29 0 43.5 0.5t38 2.5t36 7.5t26.5 15t20 24.5t6 36v1450h256v-1450q0 -21 6 -36t20 -24.5t26.5 -15t36.5 -7.5t38.5 -2.5t43.5 -0.5h85q71 0 121.5 19.5t76 45.5t39.5 67.5 t16.5 69t2.5 67.5v1267h256v-1314q0 -142 -117.5 -224.5t-308.5 -82.5h-342h-256h-341q-192 0 -309.5 82.5t-117.5 224.5z" />
<glyph unicode="X" horiz-adv-x="1450" d="M85 0l371 550q66 98 66 182q0 104 -111 305l-326 584h293l250 -450q53 -94 117 -94q66 0 131 96l302 448h102l-340 -495q-75 -109 -75 -245q0 -137 73 -267l342 -614h-292l-275 493q-36 67 -101 67q-61 0 -102 -61l-343 -499h-82z" />
<glyph unicode="Y" horiz-adv-x="1450" d="M85 1621h293l250 -450q53 -94 117 -94q66 0 131 96l302 448h102l-469 -683v-938h-256v778l-144 259z" />
<glyph unicode="Z" d="M85 0l693 1371q32 62 32 102q0 63 -121 63h-561v85h1067l-696 -1369q-37 -74 -37 -104q0 -63 127 -63h606v-85h-1110z" />
<glyph unicode="[" horiz-adv-x="682" d="M85 -341v2048h427v-86h-171v-1877h171v-85h-427z" />
<glyph unicode="\" horiz-adv-x="1280" d="M85 1621h214l810 -1621h-213z" />
<glyph unicode="]" horiz-adv-x="682" d="M85 -256h171v1877h-171v86h427v-2048h-427v85z" />
<glyph unicode="^" horiz-adv-x="896" d="M117 1427l331 331l331 -331l-60 -62l-90 92q-96 96 -181 96q-87 0 -181 -96l-90 -92z" />
<glyph unicode="_" d="M85 -341h1110v-86h-1110v86z" />
<glyph unicode="`" d="M446 1515v64q0 16 2.5 23t17 13t44.5 6h128q23 0 37 -3t19.5 -10.5t6.5 -12.5t1 -16v-22q0 -25 -10.5 -33.5t-53.5 -8.5q-36 0 -36 -22q0 -14 17 -31l106 -80l-47 -72l-204 149q-27 21 -28 56z" />
<glyph unicode="a" d="M85 307v154q0 142 117.5 224.5t309.5 82.5h427v73q0 27 -1 46.5t-6.5 49.5t-15.5 51.5t-29 46t-45 39.5t-67 25t-92 10h-427v86h512q192 0 309.5 -82.5t117.5 -225.5v-887h-683q-192 0 -309.5 82.5t-117.5 224.5zM341 354q0 -27 1 -47t6.5 -50t15.5 -51.5t29 -45.5 t45 -39.5t67 -25.5t92 -10h342v598h-342q-51 0 -92 -10t-67 -25.5t-45 -39.5t-29 -45.5t-15.5 -51.5t-6.5 -50t-1 -47v-60z" />
<glyph unicode="b" d="M85 307v1314h256v-426h171h256q192 0 309.5 -82.5t117.5 -225.5v-580q0 -142 -117.5 -224.5t-309.5 -82.5h-256q-192 0 -309.5 82.5t-117.5 224.5zM341 354q0 -27 1 -47t6.5 -50t15.5 -51.5t29 -45.5t45 -39.5t67 -25.5t92 -10h86q51 0 92 10t67 25.5t45 39.5t29 45.5 t15.5 51.5t6.5 50t1 47v487q0 27 -1 46.5t-6.5 49.5t-15.5 51.5t-29 46t-45 39.5t-67 25t-92 10h-342v-755z" />
<glyph unicode="c" horiz-adv-x="1280" d="M85 307v580q0 143 117.5 225.5t309.5 82.5h597v-86h-512q-51 0 -92 -10t-67 -25t-45 -39.5t-29 -46t-15.5 -51.5t-6.5 -49.5t-1 -46.5v-487q0 -27 1 -47t6.5 -50t15.5 -51.5t29 -45.5t45 -39.5t67 -25.5t92 -10h512v-85h-597q-192 0 -309.5 82.5t-117.5 224.5z" />
<glyph unicode="d" d="M85 307v580q0 143 117.5 225.5t309.5 82.5h427v426h256v-1621h-683q-192 0 -309.5 82.5t-117.5 224.5zM341 354q0 -27 1 -47t6.5 -50t15.5 -51.5t29 -45.5t45 -39.5t67 -25.5t92 -10h86q51 0 92 10t67 25.5t45 39.5t29 45.5t15.5 51.5t6.5 50t1 47v755h-342 q-51 0 -92 -10t-67 -25t-45 -39.5t-29 -46t-15.5 -51.5t-6.5 -49.5t-1 -46.5v-487z" />
<glyph unicode="e" d="M85 307v580q0 143 117.5 225.5t309.5 82.5h256q192 0 309.5 -82.5t117.5 -225.5v-247h-854v-286q0 -27 1 -47t6.5 -50t15.5 -51.5t29 -45.5t45 -39.5t67 -25.5t92 -10h555v-85h-640q-192 0 -309.5 82.5t-117.5 224.5zM341 725h598v116q0 27 -1 46.5t-6.5 49.5t-15.5 51.5 t-29 46t-45 39.5t-67 25t-92 10h-86q-51 0 -92 -10t-67 -25t-45 -39.5t-29 -46t-15.5 -51.5t-6.5 -49.5t-1 -46.5v-116z" />
<glyph unicode="f" horiz-adv-x="938" d="M0 1109v86h85v119q0 142 117.5 224.5t309.5 82.5h256v-85h-171q-51 0 -92 -10t-67 -25.5t-45 -39.5t-29 -45.5t-15.5 -51.5t-6.5 -50t-1 -47v-72h256v-86h-256v-1536h-256v1536h-85z" />
<glyph unicode="g" d="M85 307v580q0 143 117.5 225.5t309.5 82.5h256q192 0 309.5 -82.5t117.5 -225.5v-1006q0 -143 -117.5 -225.5t-309.5 -82.5h-597v86h512q51 0 92 10t67 25t45 39.5t29 46t15.5 51.5t6.5 49.5t1 46.5v73h-427q-192 0 -309.5 82.5t-117.5 224.5zM341 354q0 -27 1 -47 t6.5 -50t15.5 -51.5t29 -45.5t45 -39.5t67 -25.5t92 -10h86q51 0 92 10t67 25.5t45 39.5t29 45.5t15.5 51.5t6.5 50t1 47v487q0 27 -1 46.5t-6.5 49.5t-15.5 51.5t-29 46t-45 39.5t-67 25t-92 10h-86q-51 0 -92 -10t-67 -25t-45 -39.5t-29 -46t-15.5 -51.5t-6.5 -49.5 t-1 -46.5v-487z" />
<glyph unicode="h" d="M85 0v1621h256v-426h171h256q192 0 309.5 -82.5t117.5 -225.5v-887h-256v841q0 27 -1 46.5t-6.5 49.5t-15.5 51.5t-29 46t-45 39.5t-67 25t-92 10h-342v-1109h-256z" />
<glyph unicode="i" horiz-adv-x="853" d="M85 307v888h256v-841q0 -27 1 -47t6.5 -50t15.5 -51.5t29 -45.5t45 -39.5t67 -25.5t92 -10h86v-85h-171q-192 0 -309.5 82.5t-117.5 224.5zM85 1493v86q1 15 3 21.5t16.5 13.5t44.5 7h128q30 0 44.5 -6t16.5 -12.5t3 -23.5v-86q0 -25 -10 -33.5t-54 -8.5h-128 q-42 0 -53 8.5t-11 33.5z" />
<glyph unicode="j" horiz-adv-x="682" d="M-85 -341h85q51 0 92 10t67 25t45 39.5t29 46t15.5 51.5t6.5 49.5t1 46.5v1268h256v-1314q0 -143 -117.5 -225.5t-309.5 -82.5h-170v86zM256 1493v86q1 15 3 21.5t16.5 13.5t44.5 7h128q30 0 44.5 -6t16.5 -12.5t3 -23.5v-86q0 -25 -10 -33.5t-54 -8.5h-128 q-43 0 -53.5 8.5t-10.5 33.5z" />
<glyph unicode="k" horiz-adv-x="1408" d="M85 0v1621h256v-849q0 -44 22 -73t47 -29q35 0 81 40l512 485h123l-309 -295q-62 -59 -62 -141q0 -88 75 -179l493 -580h-331l-361 427q-87 102 -160 102q-27 0 -64 -20t-66 -50v-459h-256z" />
<glyph unicode="l" horiz-adv-x="853" d="M85 307v1314h256v-1267q0 -27 1 -47t6.5 -50t15.5 -51.5t29 -45.5t45 -39.5t67 -25.5t92 -10h86v-85h-171q-192 0 -309.5 82.5t-117.5 224.5z" />
<glyph unicode="m" horiz-adv-x="2048" d="M85 0v1195h1366q191 0 308.5 -82.5t117.5 -225.5v-887h-256v841q0 27 -1 46.5t-6.5 50t-15 51.5t-28.5 45.5t-45.5 39.5t-67.5 25t-92 10h-85q-29 0 -43.5 -0.5t-38.5 -2.5t-36.5 -7.5t-26.5 -14.5t-20 -24t-6 -36v-1024h-256v1024q0 21 -6 36t-20 24t-26.5 14.5t-36 7.5 t-38 2.5t-43.5 0.5h-171q-29 0 -43.5 -0.5t-38.5 -2.5t-36.5 -7.5t-26.5 -14.5t-20 -24t-6 -36v-1024h-256z" />
<glyph unicode="n" d="M85 0v1195h683q192 0 309.5 -82.5t117.5 -225.5v-887h-256v841q0 27 -1 46.5t-6.5 49.5t-15.5 51.5t-29 46t-45 39.5t-67 25t-92 10h-171q-29 0 -43.5 -0.5t-38.5 -2.5t-36.5 -7.5t-26.5 -14.5t-20 -24t-6 -36v-1024h-256z" />
<glyph unicode="o" d="M85 307v580q0 143 117.5 225.5t309.5 82.5h256q192 0 309.5 -82.5t117.5 -225.5v-580q0 -142 -117.5 -224.5t-309.5 -82.5h-256q-192 0 -309.5 82.5t-117.5 224.5zM341 354q0 -27 1 -47t6.5 -50t15.5 -51.5t29 -45.5t45 -39.5t67 -25.5t92 -10h86q51 0 92 10t67 25.5 t45 39.5t29 45.5t15.5 51.5t6.5 50t1 47v487q0 27 -1 46.5t-6.5 49.5t-15.5 51.5t-29 46t-45 39.5t-67 25t-92 10h-86q-51 0 -92 -10t-67 -25t-45 -39.5t-29 -46t-15.5 -51.5t-6.5 -49.5t-1 -46.5v-487z" />
<glyph unicode="p" d="M85 -427v1622h683q192 0 309.5 -82.5t117.5 -225.5v-580q0 -142 -117.5 -224.5t-309.5 -82.5h-427v-427h-256zM341 85h342q51 0 92 10t67 25.5t45 39.5t29 45.5t15.5 51.5t6.5 50t1 47v487q0 27 -1 46.5t-6.5 49.5t-15.5 51.5t-29 46t-45 39.5t-67 25t-92 10h-171 q-29 0 -43.5 -0.5t-38.5 -2.5t-36.5 -7.5t-26.5 -14.5t-20 -24t-6 -36v-939z" />
<glyph unicode="q" d="M85 307v580q0 143 117.5 225.5t309.5 82.5h256q192 0 309.5 -82.5t117.5 -225.5v-1314h-256v427h-427q-192 0 -309.5 82.5t-117.5 224.5zM341 354q0 -27 1 -47t6.5 -50t15.5 -51.5t29 -45.5t45 -39.5t67 -25.5t92 -10h86q51 0 92 10t67 25.5t45 39.5t29 45.5t15.5 51.5 t6.5 50t1 47v487q0 27 -1 46.5t-6.5 49.5t-15.5 51.5t-29 46t-45 39.5t-67 25t-92 10h-86q-51 0 -92 -10t-67 -25t-45 -39.5t-29 -46t-15.5 -51.5t-6.5 -49.5t-1 -46.5v-487z" />
<glyph unicode="r" horiz-adv-x="853" d="M85 0v1195h598v-86h-86q-51 0 -92 -10t-67 -25t-45 -39.5t-29 -46t-15.5 -51.5t-6.5 -49.5t-1 -46.5v-841h-256z" />
<glyph unicode="s" d="M85 883q0 143 118 227.5t309 84.5h597v-86h-512q-52 0 -92 -6t-67 -15.5t-45.5 -26t-28.5 -31.5t-15.5 -38t-6.5 -40t-1 -43q0 -24 1 -41t6.5 -42t15.5 -43t29 -38t45.5 -32.5t67 -21t91.5 -8.5h171q192 0 309.5 -82.5t117.5 -225.5v-68q0 -142 -117.5 -224.5 t-309.5 -82.5h-597v85h512q70 0 121 20t76 46t39.5 65t17 63.5t2.5 53.5q0 264 -256 264h-171q-196 0 -311.5 73t-115.5 213z" />
<glyph unicode="t" horiz-adv-x="938" d="M0 1109v86h171v426h256v-426h341v-86h-341v-755q0 -40 2.5 -67.5t16.5 -69t39.5 -67.5t76 -45.5t121.5 -19.5h85v-85h-171q-191 0 -308.5 82.5t-117.5 224.5v802h-171z" />
<glyph unicode="u" d="M85 307v888h256v-841q0 -27 1 -47t6.5 -50t15.5 -51.5t29 -45.5t45 -39.5t67 -25.5t92 -10h171q29 0 43.5 0.5t38.5 2.5t36.5 7.5t26.5 15t20 24.5t6 36v1024h256v-1195h-683q-192 0 -309.5 82.5t-117.5 224.5z" />
<glyph unicode="v" d="M85 1195h271l315 -913q24 -70 53 -70q28 0 54 70l325 913h92l-427 -1195h-271z" />
<glyph unicode="w" horiz-adv-x="2048" d="M85 307v888h256v-841q0 -27 1 -47t6.5 -50t15.5 -51.5t29 -45.5t45 -39.5t67 -25.5t92 -10h86q29 0 43.5 0.5t38 2.5t36 7.5t26.5 15t20 24.5t6 36v1024h256v-1024q0 -21 6 -36t20 -24.5t26.5 -15t36.5 -7.5t38.5 -2.5t43.5 -0.5h85q71 0 121.5 19.5t76 45.5t39.5 67.5 t16.5 69t2.5 67.5v841h256v-888q0 -142 -117.5 -224.5t-308.5 -82.5h-342h-256h-341q-192 0 -309.5 82.5t-117.5 224.5z" />
<glyph unicode="x" d="M85 0l306 364q89 107 89 183q0 72 -87 199l-308 449h278l212 -305q39 -57 66.5 -82.5t54.5 -25.5q45 0 127 97l265 316h107l-308 -371q-51 -60 -73 -99.5t-22 -78.5q0 -69 92 -200l311 -446h-287l-215 311q-63 93 -110 93q-28 0 -58 -25.5t-77 -81.5l-246 -297h-117z" />
<glyph unicode="y" d="M85 307v888h256v-841q0 -27 1 -47t6.5 -50t15.5 -51.5t29 -45.5t45 -39.5t67 -25.5t92 -10h342v1110h256v-1314q0 -143 -117.5 -225.5t-309.5 -82.5h-640v86h555q51 0 92 10t67 25t45 39.5t29 46t15.5 51.5t6.5 49.5t1 46.5v73h-427q-192 0 -309.5 82.5t-117.5 224.5z " />
<glyph unicode="z" d="M85 0l679 943q46 64 46 103q0 63 -121 63h-561v86h1067l-681 -943q-46 -64 -46 -104q0 -63 121 -63h606v-85h-1110z" />
<glyph unicode="{" horiz-adv-x="810" d="M85 653v64q13 13 49 42.5t59 50.5t43 56.5t20 72.5v484q0 45 27.5 94.5t75 92t122 70t159.5 27.5v-107q-56 0 -92 -52.5t-36 -135.5v-473q0 -37 -20 -72.5t-42 -56.5t-58.5 -51t-48.5 -42v-64q13 -13 48.5 -43t58 -51t42.5 -56.5t20 -71.5v-474q0 -85 34 -137.5t94 -52.5 v-104q-85 0 -159.5 27.5t-122 70t-75 91.5t-27.5 95v484q0 36 -20 71.5t-43 57t-59 51t-49 42.5z" />
<glyph unicode="|" horiz-adv-x="512" d="M85 -427v2048h256v-2048h-256z" />
<glyph unicode="}" horiz-adv-x="810" d="M85 -233q60 0 94 52.5t34 137.5v474q0 36 20 71.5t42.5 56.5t58 51t48.5 43v64q-12 12 -48.5 42t-58.5 51t-42 56.5t-20 72.5v473q0 83 -35.5 135.5t-92.5 52.5v107q85 0 159.5 -27.5t122 -70t75 -92t27.5 -94.5v-484q0 -37 20.5 -72.5t43.5 -56.5t58.5 -50.5t48.5 -42.5 v-64q-13 -14 -48.5 -43t-59 -50.5t-43.5 -57t-20 -71.5v-484q0 -46 -27.5 -95t-75 -91.5t-122 -70t-159.5 -27.5v104z" />
<glyph unicode="~" d="M87 899l183 166q53 47 125 47q107 0 215 -97l119 -107q62 -55 119 -55q58 0 124 61l103 92l118 -107l-124 -112q-53 -47 -125 -47q-107 0 -215 97l-119 107q-62 55 -119 55q-56 0 -124 -61l-162 -146z" />
<glyph unicode="&#xa2;" horiz-adv-x="1280" d="M85 393v580q0 142 117.5 224.5t309.5 82.5h107v171h85v-171h405v-85h-405v-1024h405v-86h-405v-170h-85v170h-107q-192 0 -309.5 82.5t-117.5 225.5zM341 439q0 -27 1 -46.5t6.5 -49.5t15.5 -51.5t29 -46t45 -39.5t67 -25t92 -10h22v1024h-22q-51 0 -92 -10t-67 -25.5 t-45 -39.5t-29 -45.5t-15.5 -51.5t-6.5 -50t-1 -47v-487z" />
<glyph unicode="&#xa3;" d="M0 0v85h85q71 0 121.5 19.5t76 45.5t39.5 67.5t16.5 69t2.5 67.5v499h-256v86h256v375q0 142 117.5 224.5t309.5 82.5h427v-85h-342q-51 0 -92 -10t-67 -25.5t-45 -39.5t-29 -45.5t-15.5 -51.5t-6.5 -50t-1 -47v-328h427v-86h-427v-499q0 -27 1 -47t6.5 -50t15.5 -51.5 t29 -45.5t45 -39.5t67 -25.5t92 -10h342v-85h-427h-597h-171z" />
<glyph unicode="&#xa5;" horiz-adv-x="1450" d="M85 1621h256q16 -115 35.5 -222.5t51 -226t67.5 -205t85 -143t103 -56.5h2q42 0 80 28.5t68 81t55 113t45 139t35 143.5t27 142t17.5 118.5t11.5 87.5h256q-48 -285 -85 -420q-129 -476 -384 -515v-174h234v-85h-234v-427h-256v427h-263v85h263v174q-230 35 -354 415 q-51 154 -107 471q-6 33 -9 49z" />
<glyph unicode="&#xa9;" horiz-adv-x="2133" d="M85 -34v1263q0 94 75 185.5t194.5 149t242.5 57.5h854q123 0 242.5 -57.5t194.5 -149t75 -185.5v-1263q0 -94 -75 -186t-194.5 -149.5t-242.5 -57.5h-854q-123 0 -242.5 57.5t-194.5 149.5t-75 186zM256 13q0 -32 11.5 -75t38 -92.5t64.5 -90.5t97.5 -68.5t129.5 -27.5 h854q70 0 129.5 27.5t97.5 68.5t64.5 90.5t38 92.5t11.5 75v1169q0 32 -11.5 75t-38 92.5t-64.5 90.5t-97.5 68.5t-129.5 27.5h-854q-70 0 -129.5 -27.5t-97.5 -68.5t-64.5 -90.5t-38 -92.5t-11.5 -75v-1169zM512 307v580q0 143 117.5 225.5t309.5 82.5h512v-86h-427 q-51 0 -92 -10t-67 -25t-45 -39.5t-29 -46t-15.5 -51.5t-6.5 -49.5t-1 -46.5v-487q0 -27 1 -47t6.5 -50t15.5 -51.5t29 -45.5t45 -39.5t67 -25.5t92 -10h427v-85h-512q-192 0 -309.5 82.5t-117.5 224.5z" />
<glyph unicode="&#xad;" d="M85 853v86h1110v-86h-1110z" />
<glyph unicode="&#xae;" horiz-adv-x="2133" d="M85 -34v1263q0 94 75 185.5t194.5 149t242.5 57.5h854q123 0 242.5 -57.5t194.5 -149t75 -185.5v-1263q0 -94 -75 -186t-194.5 -149.5t-242.5 -57.5h-854q-123 0 -242.5 57.5t-194.5 149.5t-75 186zM256 13q0 -32 11.5 -75t38 -92.5t64.5 -90.5t97.5 -68.5t129.5 -27.5 h854q70 0 129.5 27.5t97.5 68.5t64.5 90.5t38 92.5t11.5 75v1169q0 32 -11.5 75t-38 92.5t-64.5 90.5t-97.5 68.5t-129.5 27.5h-854q-70 0 -129.5 -27.5t-97.5 -68.5t-64.5 -90.5t-38 -92.5t-11.5 -75v-1169zM491 -128v811v725h640q191 0 308.5 -82.5t117.5 -224.5v-111 q0 -65 -19.5 -116.5t-50.5 -81.5t-69 -51.5t-76.5 -30.5t-70.5 -14t-53 -7.5t-23 -5.5q178 0 291.5 -83t113.5 -225v-503h-256v499q0 27 -1 47t-6.5 50t-15.5 51.5t-29 45.5t-45 39.5t-67 25.5t-92 10h-341v-768h-256zM747 725h298q51 0 92 12.5t67.5 31.5t45.5 48 t28.5 54.5t15 60t6.5 56t1 49.5v17q0 40 -2.5 67.5t-16.5 69t-39.5 67.5t-76 45.5t-121.5 19.5h-128q-29 0 -43.5 -0.5t-38 -2.5t-36 -7.5t-26.5 -15t-20 -24.5t-6 -36v-512z" />
<glyph unicode="&#xb4;" d="M489 1382l105 80q18 18 18 31q0 22 -36 22q-43 0 -53.5 8.5t-10.5 33.5v22q0 11 1 16t6.5 12.5t19.5 10.5t37 3h128q30 0 44.5 -6t17 -13t2.5 -23v-64q-1 -34 -28 -56l-205 -149z" />
<glyph unicode="&#x2000;" horiz-adv-x="896" />
<glyph unicode="&#x2001;" horiz-adv-x="1792" />
<glyph unicode="&#x2002;" horiz-adv-x="896" />
<glyph unicode="&#x2003;" horiz-adv-x="1792" />
<glyph unicode="&#x2004;" horiz-adv-x="597" />
<glyph unicode="&#x2005;" horiz-adv-x="448" />
<glyph unicode="&#x2006;" horiz-adv-x="298" />
<glyph unicode="&#x2007;" horiz-adv-x="298" />
<glyph unicode="&#x2008;" horiz-adv-x="224" />
<glyph unicode="&#x2009;" horiz-adv-x="358" />
<glyph unicode="&#x200a;" horiz-adv-x="99" />
<glyph unicode="&#x2010;" d="M85 853v86h1110v-86h-1110z" />
<glyph unicode="&#x2011;" d="M85 853v86h1110v-86h-1110z" />
<glyph unicode="&#x2012;" d="M85 853v86h1110v-86h-1110z" />
<glyph unicode="&#x2013;" horiz-adv-x="1024" d="M85 853v86h769v-86h-769z" />
<glyph unicode="&#x2014;" horiz-adv-x="2048" d="M85 853v86h1793v-86h-1793z" />
<glyph unicode="&#x2018;" d="M446 1515v64q0 16 2.5 23t17 13t44.5 6h128q23 0 37 -3t19.5 -10.5t6.5 -12.5t1 -16v-22q0 -25 -10.5 -33.5t-53.5 -8.5q-36 0 -36 -22q0 -14 17 -31l106 -80l-47 -72l-204 149q-27 21 -28 56z" />
<glyph unicode="&#x2019;" horiz-adv-x="341" d="M85 1664v85q0 11 1 16.5t6.5 13t19.5 10.5t37 3h43q31 0 45 -5.5t16.5 -13t2.5 -24.5v-128q0 -16 -21 -213h-86l22 192q0 21 -32 21h-9q-12 0 -28.5 12.5t-16.5 30.5z" />
<glyph unicode="&#x201c;" horiz-adv-x="597" d="M85 1664v85q0 11 1 16.5t6.5 13t19.5 10.5t37 3h43q31 0 45 -5.5t16.5 -13t2.5 -24.5v-128q0 -16 -21 -213h-86l22 192q0 21 -32 21h-9q-12 0 -28.5 12.5t-16.5 30.5zM341 1664v85q0 11 1 16.5t6.5 13t19.5 10.5t37 3h43q31 0 45 -5.5t16.5 -13t2.5 -24.5v-128 q0 -26 -21 -213h-86l22 192q0 21 -32 21h-9q-12 0 -28.5 12.5t-16.5 30.5z" />
<glyph unicode="&#x201d;" horiz-adv-x="597" d="M85 1664v85q0 11 1 16.5t6.5 13t19.5 10.5t37 3h43q31 0 45 -5.5t16.5 -13t2.5 -24.5v-128q0 -16 -21 -213h-86l22 192q0 21 -32 21h-9q-12 0 -28.5 12.5t-16.5 30.5zM341 1664v85q0 11 1 16.5t6.5 13t19.5 10.5t37 3h43q31 0 45 -5.5t16.5 -13t2.5 -24.5v-128 q0 -26 -21 -213h-86l22 192q0 21 -32 21h-9q-12 0 -28.5 12.5t-16.5 30.5z" />
<glyph unicode="&#x2026;" horiz-adv-x="2046" d="M1535 43v85q1 15 3 21.5t16.5 14t44.5 7.5h128q31 0 45 -6t16 -13t3 -24v-85q0 -25 -10 -34t-54 -9h-128q-43 0 -53.5 8.5t-10.5 34.5zM853 43v85q1 15 3 21.5t16.5 14t44.5 7.5h128q31 0 45 -6t16 -13t3 -24v-85q0 -25 -10 -34t-54 -9h-128q-43 0 -53.5 8.5t-10.5 34.5z M171 43v85q1 15 3 21.5t16.5 14t44.5 7.5h128q31 0 45 -6t16 -13t3 -24v-85q0 -25 -10 -34t-54 -9h-128q-43 0 -53.5 8.5t-10.5 34.5z" />
<glyph unicode="&#x202f;" horiz-adv-x="358" />
<glyph unicode="&#x205f;" horiz-adv-x="448" />
<glyph unicode="&#x20ac;" horiz-adv-x="1536" d="M25 507l146 57v164l-115 -45l-31 80l146 57v494q0 142 117.5 224.5t308.5 82.5h342q191 0 308.5 -82.5t117.5 -224.5v-79h-256v32q0 40 -2.5 67.5t-16.5 69t-39.5 67.5t-76 45.5t-121.5 19.5h-170q-71 0 -121.5 -19.5t-76 -45.5t-39.5 -67.5t-16.5 -69t-2.5 -67.5v-347 l385 150l31 -79l-416 -163v-164l385 150l31 -79l-416 -163v-218q0 -40 2.5 -67.5t16.5 -69t39.5 -67.5t76 -45.5t121.5 -19.5h170q71 0 121.5 19.5t76 45.5t39.5 67.5t16.5 69t2.5 67.5v30h256v-77q0 -142 -117.5 -224.5t-308.5 -82.5h-342q-191 0 -308.5 82.5t-117.5 224.5 v165l-115 -45z" />
<glyph unicode="&#x2122;" horiz-adv-x="3413" d="M1450 0v1621h1366q191 0 308.5 -82.5t117.5 -224.5v-1314h-256v1267q0 40 -2.5 67.5t-16.5 69t-39.5 67.5t-76 45.5t-121.5 19.5h-30q-226 0 -226 -269v-1267h-256v1267q0 27 -1 47.5t-7 50t-15.5 51.5t-29 46t-45.5 39t-66.5 25t-91.5 10h-30q-224 0 -226 -269v-1267 h-256zM85 1536v85h1110v-85h-427v-1536h-256v1536h-427z" />
<glyph unicode="&#xe000;" horiz-adv-x="1195" d="M0 1195h1195v-1195h-1195v1195z" />
</font>
</defs>
</svg>
